<svg xmlns="http://www.w3.org/2000/svg"  viewBox="0 0 64 64" width="128px" height="128px"><path d="M 35.037109 1.3027344 C 34.960109 1.3027344 34.883594 1.3074063 34.808594 1.3164062 C 34.477594 1.3544063 34.171156 1.4713906 33.910156 1.6503906 C 33.726156 1.7763906 33.561781 1.9331406 33.425781 2.1191406 C 33.367781 2.1981406 33.315531 2.2830937 33.269531 2.3710938 C 32.108531 4.4740937 31.269984 6.6240781 30.458984 8.7050781 L 30.324219 9.0488281 C 29.186219 11.964828 29.583844 13.797828 31.839844 16.048828 L 32.025391 16.234375 C 32.758391 16.964375 33.450812 17.653906 33.882812 18.378906 C 33.947812 18.486906 34.007438 18.636031 33.898438 18.832031 C 33.853437 18.912031 33.675859 19.174641 33.255859 19.181641 C 33.143859 19.183641 33.031016 19.183594 32.916016 19.183594 L 32.603516 19.181641 L 32.222656 19.181641 C 31.194656 19.181641 30.333422 19.961375 30.232422 20.984375 C 30.008422 23.257375 28.565531 24.907359 26.894531 26.818359 L 26.525391 27.240234 C 24.451391 29.627234 22.867969 31.639312 21.542969 33.570312 C 21.448969 33.707313 21.359391 33.840703 21.275391 33.970703 C 20.978391 33.188703 20.680813 32.408859 20.382812 31.630859 C 20.269813 31.335859 20.198828 31.124953 20.173828 31.001953 C 20.203828 30.971953 20.249406 30.928953 20.316406 30.876953 C 20.986406 30.349953 21.249703 29.455391 20.970703 28.650391 C 20.691703 27.844391 19.932078 27.304688 19.080078 27.304688 L 12.537109 27.304688 C 11.847109 27.304688 11.206797 27.659141 10.841797 28.244141 C 10.476797 28.829141 10.437234 29.561641 10.740234 30.181641 C 10.964234 30.639641 11.192969 31.082531 11.417969 31.519531 C 11.858969 32.374531 12.275938 33.182422 12.585938 33.982422 C 14.858937 39.863422 17.148328 45.854438 19.361328 51.648438 C 20.356328 54.254438 21.351609 56.861797 22.349609 59.466797 C 22.513609 59.895797 22.690531 60.294813 22.894531 60.757812 C 22.992531 60.980812 23.099844 61.220281 23.214844 61.488281 C 23.530844 62.223281 24.254734 62.697266 25.052734 62.697266 L 25.085938 62.697266 C 25.896937 62.683266 26.619063 62.182734 26.914062 61.427734 C 27.199063 60.698734 27.457031 59.9935 27.707031 59.3125 C 28.236031 57.8685 28.693109 56.622031 29.287109 55.457031 C 29.809109 54.434031 30.444875 53.452375 31.171875 52.359375 L 32.003906 53.539062 L 33.695312 55.939453 C 33.607312 56.248453 33.590109 56.582062 33.662109 56.914062 C 33.718109 57.170063 33.769312 57.427547 33.820312 57.685547 C 33.967312 58.425547 34.119906 59.190656 34.378906 59.972656 C 34.692906 60.917656 35.471625 61.358703 35.890625 61.595703 C 35.945625 61.626703 36.001781 61.6545 36.050781 61.6875 C 36.395781 61.9385 36.80475 62.068359 37.21875 62.068359 C 37.44075 62.068359 37.663906 62.030078 37.878906 61.955078 C 38.140906 61.864078 38.367453 61.711297 38.564453 61.529297 C 38.822453 61.807297 39.147391 62.018234 39.525391 62.115234 C 39.689391 62.157234 39.854531 62.177734 40.019531 62.177734 C 40.504531 62.177734 40.980563 62.001875 41.351562 61.671875 C 42.267562 60.854875 42.63075 60.044688 42.84375 59.429688 C 43.21275 58.366687 43.573547 57.300375 43.935547 56.234375 C 44.578547 54.341375 45.2445 52.383375 45.9375 50.484375 C 46.8025 48.114375 47.605812 45.694516 48.382812 43.353516 C 49.834812 38.979516 51.334234 34.457016 53.240234 30.291016 C 53.383234 30.016016 53.464844 29.704047 53.464844 29.373047 C 53.465844 28.267047 52.571797 27.371094 51.466797 27.371094 L 51.462891 27.371094 L 46.160156 27.371094 C 45.668156 27.371094 45.207516 27.551422 44.853516 27.857422 C 44.869516 27.814422 44.884391 27.770516 44.900391 27.728516 C 45.248391 26.769516 45.275656 25.627781 44.972656 24.675781 C 43.934656 21.409781 42.716578 17.969844 40.267578 14.964844 C 40.218578 14.897844 40.117781 14.652234 40.050781 14.490234 C 39.968781 14.294234 39.884969 14.098156 39.792969 13.910156 C 39.518969 13.348156 38.997766 12.947172 38.384766 12.826172 C 38.255766 12.800172 38.125094 12.789063 37.996094 12.789062 C 37.544094 12.789062 37.103094 12.942516 36.746094 13.228516 C 35.972094 11.556516 35.823062 9.752625 36.289062 7.765625 C 36.519062 6.784625 36.669453 5.8082813 36.814453 4.8632812 C 36.872453 4.4882812 36.929188 4.1122813 36.992188 3.7382812 C 37.023187 3.5982812 37.039062 3.4527344 37.039062 3.3027344 C 37.039062 2.2287344 36.196766 1.3526875 35.134766 1.3046875 C 35.102766 1.3026875 35.069109 1.3027344 35.037109 1.3027344 z M 35.035156 3.3027344 C 34.808156 4.6387344 34.648844 5.9915937 34.339844 7.3085938 C 33.592844 10.493594 34.139703 13.384578 36.095703 16.017578 C 36.634703 16.743578 37.129234 17.505531 37.615234 18.269531 C 39.286234 20.900531 38.903156 22.772719 36.410156 24.636719 C 33.955156 26.472719 31.486 28.296047 29.125 30.248047 C 27.322 31.739047 25.862719 33.564578 25.261719 35.892578 C 25.047719 36.721578 25.082906 37.615422 25.003906 38.482422 C 25.275906 38.502422 25.428953 38.533203 25.501953 38.533203 C 25.528953 38.533203 25.544734 38.528578 25.552734 38.517578 C 28.027734 35.004578 31.529375 32.578984 34.734375 29.833984 C 35.915375 28.821984 37.040687 27.721922 38.054688 26.544922 C 40.742688 23.424922 40.797422 20.439891 38.357422 17.087891 C 37.968422 16.553891 37.636344 15.980781 37.277344 15.425781 L 37.994141 14.789062 C 38.230141 15.272063 38.383844 15.822516 38.714844 16.228516 C 40.893844 18.902516 42.042453 22.06525 43.064453 25.28125 C 43.234453 25.81625 43.210578 26.516875 43.017578 27.046875 C 41.688578 30.707875 39.826531 33.960047 36.269531 35.998047 C 34.307531 37.122047 32.453563 38.441141 30.601562 39.744141 C 29.839562 40.280141 29.212266 41.008937 28.322266 41.835938 C 29.601266 42.765937 30.655156 43.595688 31.785156 44.304688 C 31.866156 44.355688 31.979422 44.378906 32.107422 44.378906 C 32.389422 44.378906 32.739078 44.271766 32.955078 44.134766 C 35.077078 42.784766 37.266609 41.507313 39.224609 39.945312 C 40.354609 39.043312 41.119188 37.674609 41.992188 36.474609 C 42.493187 35.785609 42.881734 35.014687 43.552734 34.429688 C 44.106734 37.925688 41.304203 39.206891 39.033203 40.962891 C 39.540203 41.280891 39.896828 41.502859 40.298828 41.755859 C 38.270828 43.092859 36.325594 44.375937 35.058594 45.210938 C 36.980594 47.202937 38.804906 49.089609 40.503906 50.849609 C 41.918906 46.599609 43.532531 41.752297 45.144531 36.904297 C 45.667531 35.330297 46.193172 33.758687 46.701172 32.179688 C 47.016172 31.198687 47.358203 30.193094 46.158203 29.371094 L 51.460938 29.371094 C 48.467937 35.892094 46.554594 42.954875 44.058594 49.796875 C 42.973594 52.769875 41.992125 55.780484 40.953125 58.771484 C 40.793125 59.233484 40.579531 59.676781 40.019531 60.175781 C 39.842531 59.677781 39.658375 59.182594 39.484375 58.683594 C 39.450375 58.486594 39.393922 58.285078 39.294922 58.080078 C 39.281922 58.054078 39.267859 58.031859 39.255859 58.005859 C 38.174859 54.438859 37.009406 50.920344 34.316406 48.152344 C 33.970406 47.796344 33.724281 47.345797 33.363281 46.841797 C 32.712281 47.436797 32.321125 47.793141 31.828125 48.244141 C 33.301125 50.267141 35.332766 51.917609 36.009766 54.349609 C 35.982766 54.348609 35.955734 54.339844 35.927734 54.339844 C 35.660734 54.339844 35.392766 54.397766 35.134766 54.509766 C 33.890766 52.743766 32.616187 50.936594 31.117188 48.808594 C 29.747187 50.953594 28.464859 52.666875 27.505859 54.546875 C 26.558859 56.402875 25.940734 58.425266 25.052734 60.697266 C 24.706734 59.892266 24.438797 59.328047 24.216797 58.748047 C 20.962797 50.251047 17.731172 41.747719 14.451172 33.261719 C 13.938172 31.933719 13.212109 30.687688 12.537109 29.304688 L 19.080078 29.304688 C 17.822078 30.293688 18.094672 31.251703 18.513672 32.345703 C 20.743672 38.165703 22.90475 44.011656 25.09375 49.847656 C 25.28275 50.352656 25.498391 50.846344 25.775391 51.527344 C 26.914391 50.192344 27.940422 48.989094 29.107422 47.621094 C 28.569422 47.314094 28.138969 46.884937 27.667969 46.835938 C 26.166969 46.679938 25.654906 45.657547 25.378906 44.435547 C 25.071906 43.074547 24.926266 41.673172 24.572266 40.326172 C 24.420266 39.745172 23.986266 39.201375 23.572266 38.734375 C 21.966266 36.925375 21.812453 36.707172 23.189453 34.701172 C 24.662453 32.554172 26.323203 30.520734 28.033203 28.552734 C 29.927203 26.372734 31.913703 24.288687 32.220703 21.179688 C 32.471703 21.179688 32.697063 21.181641 32.914062 21.181641 C 33.040062 21.181641 33.162156 21.181687 33.285156 21.179688 C 35.309156 21.147687 36.627656 19.077563 35.597656 17.351562 C 34.992656 16.337563 34.096047 15.478812 33.248047 14.632812 C 31.567047 12.955813 31.329547 11.970391 32.185547 9.7753906 C 33.035547 7.5963906 33.868156 5.4107344 35.035156 3.3027344 z M 44.169922 29.574219 C 44.226922 30.125219 44.510609 30.641422 44.974609 30.982422 C 44.935609 31.144422 44.8645 31.36725 44.8125 31.53125 C 44.6925 31.90325 44.571172 32.272625 44.451172 32.640625 C 44.382172 32.605625 44.310328 32.575828 44.236328 32.548828 C 44.014328 32.467828 43.784687 32.427734 43.554688 32.427734 C 43.183687 32.427734 42.817047 32.530516 42.498047 32.728516 C 43.178047 31.683516 43.719922 30.611219 44.169922 29.574219 z M 10.181641 34.919922 C 10.051781 34.913609 9.9193125 34.932969 9.7890625 34.980469 L 7.9101562 35.669922 C 7.3911562 35.859922 7.1264062 36.435125 7.3164062 36.953125 C 7.4644062 37.357125 7.8488594 37.607422 8.2558594 37.607422 C 8.3698594 37.607422 8.4846094 37.588875 8.5996094 37.546875 L 10.478516 36.857422 C 10.997516 36.668422 11.263266 36.093219 11.072266 35.574219 C 10.929766 35.185719 10.571219 34.938859 10.181641 34.919922 z M 40.226562 35.507812 C 40.053562 35.752812 39.882891 36.001953 39.712891 36.251953 C 39.138891 37.093953 38.596469 37.888859 37.980469 38.380859 C 36.526469 39.540859 34.934047 40.534891 33.248047 41.587891 C 32.914047 41.796891 32.581047 42.004844 32.248047 42.214844 C 31.978047 42.030844 31.706734 41.837766 31.427734 41.634766 C 31.538734 41.540766 31.646859 41.455906 31.755859 41.378906 L 32.019531 41.193359 C 33.720531 39.995359 35.477625 38.757422 37.265625 37.732422 C 38.405625 37.080422 39.383563 36.324813 40.226562 35.507812 z M 11.904297 39.615234 C 11.7745 39.608969 11.641219 39.628031 11.511719 39.675781 L 9.6347656 40.365234 C 9.1157656 40.555234 8.8490625 41.130437 9.0390625 41.648438 C 9.1870625 42.052438 9.5715156 42.302734 9.9785156 42.302734 C 10.092516 42.302734 10.208266 42.282234 10.322266 42.240234 L 12.199219 41.552734 C 12.718219 41.362734 12.984922 40.787531 12.794922 40.269531 C 12.653172 39.881031 12.293688 39.634031 11.904297 39.615234 z M 27.845703 42.857422 C 27.334703 45.140422 29.37175 45.412578 30.09375 46.767578 C 30.56775 46.247578 30.873234 45.912766 31.240234 45.509766 C 30.085234 44.607766 29.072703 43.815422 27.845703 42.857422 z M 40.720703 43.873047 L 39.822266 46.566406 L 39.650391 47.085938 L 38.576172 45.972656 L 38.173828 45.552734 L 40.720703 43.873047 z M 13.626953 44.310547 C 13.497297 44.304219 13.363625 44.321641 13.234375 44.369141 L 11.357422 45.058594 C 10.838422 45.247594 10.571719 45.821844 10.761719 46.339844 C 10.909719 46.744844 11.292219 46.996094 11.699219 46.996094 C 11.813219 46.996094 11.930922 46.975594 12.044922 46.933594 L 13.921875 46.246094 C 14.439875 46.058094 14.707578 45.482844 14.517578 44.964844 C 14.375828 44.575594 14.015922 44.329531 13.626953 44.310547 z M 15.347656 49.003906 C 15.218031 48.997625 15.084578 49.016703 14.955078 49.064453 L 13.078125 49.751953 C 12.559125 49.940953 12.292422 50.515203 12.482422 51.033203 C 12.630422 51.438203 13.014875 51.689453 13.421875 51.689453 C 13.535875 51.689453 13.651625 51.670906 13.765625 51.628906 L 15.642578 50.939453 C 16.161578 50.751453 16.429281 50.177203 16.238281 49.658203 C 16.095781 49.268953 15.736531 49.02275 15.347656 49.003906 z M 17.068359 53.697266 C 16.938688 53.691 16.806984 53.710062 16.677734 53.757812 L 14.800781 54.447266 C 14.281781 54.637266 14.015078 55.212469 14.205078 55.730469 C 14.353078 56.134469 14.737531 56.384766 15.144531 56.384766 C 15.258531 56.384766 15.374281 56.364266 15.488281 56.322266 L 17.365234 55.634766 C 17.884234 55.444766 18.150938 54.869563 17.960938 54.351562 C 17.818437 53.963062 17.457375 53.716062 17.068359 53.697266 z M 36.5 57.238281 C 36.83 57.755281 37.147875 58.278266 37.421875 58.822266 C 37.449875 58.908266 37.481766 58.987266 37.509766 59.072266 C 37.533766 59.343266 37.307797 59.7355 37.216797 60.0625 C 36.891797 59.8265 36.378391 59.651797 36.275391 59.341797 C 36.065391 58.709797 35.932734 58.052531 35.802734 57.394531 C 36.044734 57.389531 36.277 57.328281 36.5 57.238281 z M 18.792969 58.392578 C 18.662938 58.386281 18.529187 58.403672 18.398438 58.451172 L 16.521484 59.140625 C 16.002484 59.330625 15.737734 59.905828 15.927734 60.423828 C 16.075734 60.827828 16.458234 61.078125 16.865234 61.078125 C 16.979234 61.078125 17.095937 61.059578 17.210938 61.017578 L 19.087891 60.328125 C 19.606891 60.138125 19.871641 59.562922 19.681641 59.044922 C 19.539891 58.657172 19.183062 58.411469 18.792969 58.392578 z"/></svg>